<svg width="2696" height="709" viewBox="0 0 2696 709" fill="none" xmlns="http://www.w3.org/2000/svg">
<path d="M114.5 640.505L225.5 494.505L223.5 575.005L308.5 539.005L228 651.005C269 654.505 383 631.305 511 510.505C639 389.705 666 295.171 663.5 263.005C670.667 331.171 654.032 443.861 591 533.005C519.288 634.424 382.5 688.005 320 699.505C320 699.505 256.694 708.567 216 708.505C176.281 708.444 143.193 705.948 104 699.505C67.5 693.505 53.3 686.105 32.5 670.505C11.7 654.905 0 634.005 0 599.005V153.005C0.000300839 144.005 10.5 115.505 24 102.005C37 89.0048 61.5 78.5048 75.4997 78.5048H133.5V24.5048C133.5 16.0048 147 -0.320244 166.5 0.00478161C185.5 0.321483 196.5 16.5048 196.5 24.5048L195 78.5048H466V24.5048C466 16.5048 479.499 0.00478161 496 0.00478161C512.5 0.00478161 525.5 16.0048 525.5 24.5048V78.5048H587.5C607 78.5048 623.636 82.2582 639.5 97.0048C653.629 110.139 663.5 127.505 663.5 144.505V206.505C663.5 247.005 637 304.005 629 320.505C621.108 336.781 617 342.005 603.5 361.505C603.5 361.505 608.931 321.382 610 295.505C611.258 265.06 608 217.505 608 217.505C607.833 214.505 606.693 206.488 602 202.005C596.86 197.096 588.5 197.005 584.5 197.005H73.4997C68 197.005 64.9631 196.923 61 200.005C56.5858 203.437 55.0003 208.505 55 213.005L54.4997 585.505C54.4997 607.005 68 623.005 78 630.505C90.2442 639.688 105 640.505 114.5 640.505Z" fill="#592CFD"/>
<path d="M488 237.505C488.667 259.005 493.321 308.529 471 374.005C448.5 440.005 423.333 440.338 399 473.505C399.333 491.838 402 517.005 384.5 545.005C368.25 571.005 342.333 580.505 329 590.005V513.005L247 537.505L249.5 464.505L172.5 471.005C176.167 456.005 188.26 422.955 208 404.005C233 380.005 262.833 381.338 276 381.005C289.667 355.838 309.418 321.499 343.5 292.005C395.5 247.005 463.333 241.171 488 237.505ZM387.301 318.2C366.59 318.2 349.801 334.99 349.801 355.7C349.801 376.411 366.59 393.2 387.301 393.2C408.011 393.2 424.801 376.411 424.801 355.7C424.801 334.99 408.011 318.2 387.301 318.2Z" fill="#592CFD"/>
<path d="M905 564C881.333 564 859.333 559.667 839 551C819 542.333 801.667 530.333 787 515C772.667 499.333 762.167 481.167 755.5 460.5L812 436C821 457.333 834 474.167 851 486.5C868 498.5 887.167 504.5 908.5 504.5C920.5 504.5 930.833 502.667 939.5 499C948.5 495 955.333 489.667 960 483C965 476.333 967.5 468.333 967.5 459C967.5 448 964.167 439 957.5 432C951.167 424.667 941.5 419 928.5 415L857 392C828 383 806.167 369.5 791.5 351.5C776.833 333.5 769.5 312.333 769.5 288C769.5 266.667 774.667 247.833 785 231.5C795.667 215.167 810.333 202.5 829 193.5C848 184.167 869.667 179.5 894 179.5C916.333 179.5 936.833 183.5 955.5 191.5C974.167 199.167 990.167 210 1003.5 224C1017.17 237.667 1027.33 253.833 1034 272.5L978 297.5C970.667 278.833 959.667 264.5 945 254.5C930.333 244.167 913.333 239 894 239C882.667 239 872.667 241 864 245C855.333 248.667 848.5 254 843.5 261C838.833 267.667 836.5 275.667 836.5 285C836.5 295.333 839.833 304.5 846.5 312.5C853.167 320.167 863.333 326.167 877 330.5L945.5 352C975.167 361.667 997.333 375 1012 392C1027 409 1034.5 430 1034.5 455C1034.5 476.333 1029 495.167 1018 511.5C1007 527.833 991.833 540.667 972.5 550C953.167 559.333 930.667 564 905 564ZM1201.23 564C1174.23 564 1149.9 557.833 1128.23 545.5C1106.9 532.833 1090.06 515.833 1077.73 494.5C1065.4 472.833 1059.23 448.5 1059.23 421.5C1059.23 394.5 1065.4 370.333 1077.73 349C1090.06 327.667 1106.9 310.833 1128.23 298.5C1149.9 286.167 1174.23 280 1201.23 280C1220.56 280 1238.56 283.5 1255.23 290.5C1271.9 297.167 1286.23 306.5 1298.23 318.5C1310.56 330.167 1319.4 344.167 1324.73 360.5L1267.23 385.5C1262.23 371.833 1253.73 360.833 1241.73 352.5C1230.06 344.167 1216.56 340 1201.23 340C1186.9 340 1174.06 343.5 1162.73 350.5C1151.73 357.5 1143.06 367.167 1136.73 379.5C1130.4 391.833 1127.23 406 1127.23 422C1127.23 438 1130.4 452.167 1136.73 464.5C1143.06 476.833 1151.73 486.5 1162.73 493.5C1174.06 500.5 1186.9 504 1201.23 504C1216.9 504 1230.56 499.833 1242.23 491.5C1253.9 483.167 1262.23 472 1267.23 458L1324.73 484C1319.4 499.333 1310.73 513.167 1298.73 525.5C1286.73 537.5 1272.4 547 1255.73 554C1239.06 560.667 1220.9 564 1201.23 564ZM1435.95 564C1416.95 564 1400.45 560.833 1386.45 554.5C1372.45 548.167 1361.62 539.167 1353.95 527.5C1346.29 515.5 1342.45 501.667 1342.45 486C1342.45 471 1345.79 457.667 1352.45 446C1359.12 434 1369.45 424 1383.45 416C1397.45 408 1415.12 402.333 1436.45 399L1525.45 384.5V434.5L1448.95 447.5C1435.95 449.833 1426.29 454 1419.95 460C1413.62 466 1410.45 473.833 1410.45 483.5C1410.45 492.833 1413.95 500.333 1420.95 506C1428.29 511.333 1437.29 514 1447.95 514C1461.62 514 1473.62 511.167 1483.95 505.5C1494.62 499.5 1502.79 491.333 1508.45 481C1514.45 470.667 1517.45 459.333 1517.45 447V377C1517.45 365.333 1512.79 355.667 1503.45 348C1494.45 340 1482.45 336 1467.45 336C1453.45 336 1440.95 339.833 1429.95 347.5C1419.29 354.833 1411.45 364.667 1406.45 377L1352.95 351C1358.29 336.667 1366.62 324.333 1377.95 314C1389.62 303.333 1403.29 295 1418.95 289C1434.62 283 1451.62 280 1469.95 280C1492.29 280 1511.95 284.167 1528.95 292.5C1545.95 300.5 1559.12 311.833 1568.45 326.5C1578.12 340.833 1582.95 357.667 1582.95 377V558H1520.95V511.5L1534.95 510.5C1527.95 522.167 1519.62 532 1509.95 540C1500.29 547.667 1489.29 553.667 1476.95 558C1464.62 562 1450.95 564 1435.95 564ZM1623.49 558V179.5H1688.99V558H1623.49ZM1858.47 564C1830.47 564 1805.97 557.667 1784.97 545C1763.97 532.333 1747.64 515.167 1735.97 493.5C1724.3 471.833 1718.47 447.833 1718.47 421.5C1718.47 394.167 1724.3 370 1735.97 349C1747.97 327.667 1764.14 310.833 1784.47 298.5C1805.14 286.167 1828.14 280 1853.47 280C1874.8 280 1893.47 283.5 1909.47 290.5C1925.8 297.5 1939.64 307.167 1950.97 319.5C1962.3 331.833 1970.97 346 1976.97 362C1982.97 377.667 1985.97 394.667 1985.97 413C1985.97 417.667 1985.64 422.5 1984.97 427.5C1984.64 432.5 1983.8 436.833 1982.47 440.5H1772.47V390.5H1945.47L1914.47 414C1917.47 398.667 1916.64 385 1911.97 373C1907.64 361 1900.3 351.5 1889.97 344.5C1879.97 337.5 1867.8 334 1853.47 334C1839.8 334 1827.64 337.5 1816.97 344.5C1806.3 351.167 1798.14 361.167 1792.47 374.5C1787.14 387.5 1785.14 403.333 1786.47 422C1785.14 438.667 1787.3 453.5 1792.97 466.5C1798.97 479.167 1807.64 489 1818.97 496C1830.64 503 1843.97 506.5 1858.97 506.5C1873.97 506.5 1886.64 503.333 1896.97 497C1907.64 490.667 1915.97 482.167 1921.97 471.5L1974.97 497.5C1969.64 510.5 1961.3 522 1949.97 532C1938.64 542 1925.14 549.833 1909.47 555.5C1894.14 561.167 1877.14 564 1858.47 564Z" fill="black"/>
<path d="M2197.62 564C2170.95 564 2146.29 559.167 2123.62 549.5C2100.95 539.833 2081.12 526.333 2064.12 509C2047.12 491.667 2033.79 471.333 2024.12 448C2014.79 424.667 2010.12 399.167 2010.12 371.5C2010.12 343.833 2014.62 318.333 2023.62 295C2032.95 271.333 2045.95 251 2062.62 234C2079.62 216.667 2099.45 203.333 2122.12 194C2144.79 184.333 2169.45 179.5 2196.12 179.5C2222.79 179.5 2246.62 184 2267.62 193C2288.95 202 2306.95 214 2321.62 229C2336.29 243.667 2346.79 259.833 2353.12 277.5L2292.62 306.5C2285.62 287.167 2273.79 271.5 2257.12 259.5C2240.45 247.5 2220.12 241.5 2196.12 241.5C2172.79 241.5 2152.12 247 2134.12 258C2116.45 269 2102.62 284.167 2092.62 303.5C2082.95 322.833 2078.12 345.5 2078.12 371.5C2078.12 397.5 2083.12 420.333 2093.12 440C2103.45 459.333 2117.62 474.5 2135.62 485.5C2153.62 496.5 2174.29 502 2197.62 502C2216.62 502 2234.12 498.333 2250.12 491C2266.12 483.333 2278.95 472.667 2288.62 459C2298.29 445 2303.12 428.5 2303.12 409.5V381L2334.12 408H2196.12V350.5H2371.12V388C2371.12 416.667 2366.29 442 2356.62 464C2346.95 486 2333.79 504.5 2317.12 519.5C2300.79 534.167 2282.29 545.333 2261.62 553C2240.95 560.333 2219.62 564 2197.62 564ZM2532.43 564C2505.76 564 2481.43 557.833 2459.43 545.5C2437.76 533.167 2420.43 516.333 2407.43 495C2394.76 473.667 2388.43 449.333 2388.43 422C2388.43 394.667 2394.76 370.333 2407.43 349C2420.43 327.667 2437.76 310.833 2459.43 298.5C2481.1 286.167 2505.43 280 2532.43 280C2559.1 280 2583.26 286.167 2604.93 298.5C2626.6 310.833 2643.76 327.667 2656.43 349C2669.43 370 2675.93 394.333 2675.93 422C2675.93 449.333 2669.43 473.667 2656.43 495C2643.43 516.333 2626.1 533.167 2604.43 545.5C2582.76 557.833 2558.76 564 2532.43 564ZM2532.43 504C2547.1 504 2559.93 500.5 2570.93 493.5C2582.26 486.5 2591.1 476.833 2597.43 464.5C2604.1 451.833 2607.43 437.667 2607.43 422C2607.43 406 2604.1 392 2597.43 380C2591.1 367.667 2582.26 358 2570.93 351C2559.93 343.667 2547.1 340 2532.43 340C2517.43 340 2504.26 343.667 2492.93 351C2481.6 358 2472.6 367.667 2465.93 380C2459.6 392 2456.43 406 2456.43 422C2456.43 437.667 2459.6 451.833 2465.93 464.5C2472.6 476.833 2481.6 486.5 2492.93 493.5C2504.26 500.5 2517.43 504 2532.43 504Z" fill="#592CFD"/>
<path d="M2016.9 687V612.5H2047C2051 612.5 2054.47 613.333 2057.4 615C2060.4 616.6 2062.73 618.833 2064.4 621.7C2066.07 624.5 2066.9 627.7 2066.9 631.3C2066.9 635.167 2065.83 638.6 2063.7 641.6C2061.63 644.6 2058.8 646.667 2055.2 647.8V646.9C2058.2 647.633 2060.8 648.933 2063 650.8C2065.2 652.667 2066.9 654.933 2068.1 657.6C2069.3 660.2 2069.9 663.067 2069.9 666.2C2069.9 672.467 2067.93 677.5 2064 681.3C2060.07 685.1 2054.4 687 2047 687H2016.9ZM2021.9 682.5H2046.1C2051.97 682.5 2056.57 681.033 2059.9 678.1C2063.23 675.1 2064.9 671.167 2064.9 666.3C2064.9 661.367 2063.27 657.433 2060 654.5C2056.8 651.5 2052.5 650 2047.1 650H2021.9V682.5ZM2021.9 645.5H2046.4C2051.13 645.5 2054.9 644.2 2057.7 641.6C2060.5 639 2061.9 635.533 2061.9 631.2C2061.9 626.867 2060.53 623.433 2057.8 620.9C2055.13 618.3 2051.33 617 2046.4 617H2021.9V645.5ZM2081.63 709C2080.83 709 2079.9 708.933 2078.83 708.8C2077.76 708.667 2076.73 708.433 2075.73 708.1V704C2076.66 704.267 2077.63 704.433 2078.63 704.5C2079.7 704.633 2080.6 704.7 2081.33 704.7C2084.6 704.633 2087.2 703.733 2089.13 702C2091.13 700.333 2092.83 697.867 2094.23 694.6L2098.43 684.8L2098.63 689.4L2076.33 634.4H2081.43L2101.53 684H2098.73L2119.03 634.4H2124.23L2099.03 695.1C2098.3 696.9 2097.2 698.867 2095.73 701C2094.33 703.2 2092.46 705.067 2090.13 706.6C2087.86 708.2 2085.03 709 2081.63 709ZM2143.08 687V682H2146.88C2150.88 682 2154.01 680.8 2156.28 678.4C2158.54 675.933 2159.68 672.333 2159.68 667.6V612.5H2164.68V667.9C2164.68 671.833 2163.94 675.233 2162.48 678.1C2161.01 680.967 2158.94 683.167 2156.28 684.7C2153.61 686.233 2150.48 687 2146.88 687H2143.08ZM2199.06 688.2C2195.6 688.2 2192.36 687.433 2189.36 685.9C2186.36 684.367 2183.93 682.133 2182.06 679.2C2180.2 676.267 2179.26 672.667 2179.26 668.4V634.4H2183.76V668.4C2183.76 671.733 2184.46 674.567 2185.86 676.9C2187.33 679.233 2189.26 681 2191.66 682.2C2194.06 683.333 2196.66 683.9 2199.46 683.9C2202.86 683.9 2205.73 683.133 2208.06 681.6C2210.46 680 2212.26 677.867 2213.46 675.2C2214.66 672.533 2215.26 669.6 2215.26 666.4V634.4H2219.76V687H2215.26V675.9L2216.46 676.4C2215.4 679.867 2213.3 682.7 2210.16 684.9C2207.1 687.1 2203.4 688.2 2199.06 688.2ZM2234.39 687V634.4H2238.89V645.5L2237.69 645C2238.76 641.467 2240.86 638.633 2243.99 636.5C2247.19 634.3 2250.89 633.2 2255.09 633.2C2258.63 633.2 2261.89 634 2264.89 635.6C2267.89 637.2 2270.29 639.467 2272.09 642.4C2273.96 645.267 2274.89 648.633 2274.89 652.5V687H2270.39V653C2270.39 649.8 2269.69 647.067 2268.29 644.8C2266.89 642.467 2264.99 640.667 2262.59 639.4C2260.26 638.133 2257.63 637.5 2254.69 637.5C2251.36 637.5 2248.49 638.3 2246.09 639.9C2243.76 641.433 2241.96 643.533 2240.69 646.2C2239.49 648.8 2238.89 651.733 2238.89 655V687H2234.39ZM2288.43 687V634.4H2292.93V687H2288.43ZM2288.43 623.5V612.5H2292.93V623.5H2288.43ZM2331.8 688.2C2326.8 688.2 2322.3 687 2318.3 684.6C2314.3 682.2 2311.13 678.933 2308.8 674.8C2306.46 670.6 2305.3 665.9 2305.3 660.7C2305.3 655.433 2306.46 650.733 2308.8 646.6C2311.13 642.467 2314.3 639.2 2318.3 636.8C2322.3 634.4 2326.8 633.2 2331.8 633.2C2336.86 633.2 2341.36 634.4 2345.3 636.8C2349.3 639.2 2352.46 642.467 2354.8 646.6C2357.13 650.733 2358.3 655.433 2358.3 660.7C2358.3 665.9 2357.13 670.6 2354.8 674.8C2352.46 678.933 2349.3 682.2 2345.3 684.6C2341.36 687 2336.86 688.2 2331.8 688.2ZM2331.8 683.9C2335.86 683.9 2339.53 682.9 2342.8 680.9C2346.06 678.833 2348.66 676.033 2350.6 672.5C2352.53 668.967 2353.5 665.033 2353.5 660.7C2353.5 656.3 2352.53 652.367 2350.6 648.9C2348.73 645.367 2346.16 642.6 2342.9 640.6C2339.63 638.533 2335.93 637.5 2331.8 637.5C2327.73 637.5 2324.03 638.533 2320.7 640.6C2317.43 642.6 2314.83 645.367 2312.9 648.9C2311.03 652.367 2310.1 656.3 2310.1 660.7C2310.1 665.033 2311.06 668.967 2313 672.5C2314.93 676.033 2317.53 678.833 2320.8 680.9C2324.06 682.9 2327.73 683.9 2331.8 683.9ZM2370.71 687V634.4H2375.21V645.5L2374.01 645C2375.01 641.467 2377.01 638.733 2380.01 636.8C2383.01 634.8 2386.47 633.8 2390.41 633.8H2393.71V638.3H2390.31C2385.51 638.3 2381.77 639.867 2379.11 643C2376.51 646.133 2375.21 650.133 2375.21 655V687H2370.71ZM2448.91 688.2C2443.84 688.2 2439.17 687.267 2434.91 685.4C2430.64 683.467 2426.91 680.767 2423.71 677.3C2420.51 673.833 2418.01 669.767 2416.21 665.1C2414.47 660.433 2413.61 655.3 2413.61 649.7C2413.61 644.167 2414.47 639.067 2416.21 634.4C2418.01 629.667 2420.51 625.6 2423.71 622.2C2426.91 618.733 2430.64 616.067 2434.91 614.2C2439.17 612.267 2443.84 611.3 2448.91 611.3C2453.84 611.3 2458.27 612.233 2462.21 614.1C2466.14 615.9 2469.47 618.2 2472.21 621C2474.94 623.733 2476.91 626.533 2478.11 629.4L2473.41 631.5C2471.21 626.833 2467.97 623.1 2463.71 620.3C2459.51 617.5 2454.57 616.1 2448.91 616.1C2442.97 616.1 2437.71 617.533 2433.11 620.4C2428.57 623.2 2425.01 627.133 2422.41 632.2C2419.87 637.2 2418.61 643.033 2418.61 649.7C2418.61 656.367 2419.87 662.233 2422.41 667.3C2425.01 672.367 2428.57 676.333 2433.11 679.2C2437.71 682 2442.97 683.4 2448.91 683.4C2454.57 683.4 2459.51 682 2463.71 679.2C2467.97 676.4 2471.21 672.667 2473.41 668L2478.11 670.1C2476.91 672.967 2474.94 675.8 2472.21 678.6C2469.47 681.333 2466.14 683.633 2462.21 685.5C2458.27 687.3 2453.84 688.2 2448.91 688.2ZM2504.44 688.2C2501.24 688.2 2498.34 687.6 2495.74 686.4C2493.2 685.133 2491.17 683.4 2489.64 681.2C2488.1 678.933 2487.34 676.333 2487.34 673.4C2487.34 671 2487.87 668.7 2488.94 666.5C2490.07 664.233 2491.87 662.267 2494.34 660.6C2496.87 658.933 2500.24 657.767 2504.44 657.1L2526.44 653.4V657.7L2505.94 661.1C2500.74 661.967 2497.1 663.5 2495.04 665.7C2492.97 667.9 2491.94 670.4 2491.94 673.2C2491.94 676.533 2493.17 679.167 2495.64 681.1C2498.1 683.033 2501.17 684 2504.84 684C2508.9 684 2512.4 683.033 2515.34 681.1C2518.34 679.167 2520.67 676.633 2522.34 673.5C2524 670.3 2524.84 666.867 2524.84 663.2V650.5C2524.84 646.567 2523.47 643.433 2520.74 641.1C2518.07 638.7 2514.5 637.5 2510.04 637.5C2506.64 637.5 2503.5 638.333 2500.64 640C2497.77 641.667 2495.54 643.867 2493.94 646.6L2489.94 644.5C2490.94 642.5 2492.4 640.667 2494.34 639C2496.34 637.267 2498.67 635.867 2501.34 634.8C2504 633.733 2506.9 633.2 2510.04 633.2C2513.84 633.2 2517.17 633.933 2520.04 635.4C2522.97 636.867 2525.24 638.9 2526.84 641.5C2528.5 644.1 2529.34 647.1 2529.34 650.5V687H2524.84V675.5H2525.24C2524.37 677.7 2522.94 679.767 2520.94 681.7C2518.94 683.633 2516.54 685.2 2513.74 686.4C2510.94 687.6 2507.84 688.2 2504.44 688.2ZM2543.96 687V634.4H2548.46V645.5L2547.26 645C2548.26 641.467 2550.26 638.733 2553.26 636.8C2556.26 634.8 2559.73 633.8 2563.66 633.8H2566.96V638.3H2563.56C2558.76 638.3 2555.03 639.867 2552.36 643C2549.76 646.133 2548.46 650.133 2548.46 655V687H2543.96ZM2574.94 687V611.3H2579.44V687H2574.94ZM2594.01 687V634.4H2598.51V687H2594.01ZM2594.01 623.5V612.5H2598.51V623.5H2594.01ZM2613.09 687V634.4H2617.59V645.5L2616.39 645C2617.45 641.467 2619.55 638.633 2622.69 636.5C2625.89 634.3 2629.59 633.2 2633.79 633.2C2637.32 633.2 2640.59 634 2643.59 635.6C2646.59 637.2 2648.99 639.467 2650.79 642.4C2652.65 645.267 2653.59 648.633 2653.59 652.5V687H2649.09V653C2649.09 649.8 2648.39 647.067 2646.99 644.8C2645.59 642.467 2643.69 640.667 2641.29 639.4C2638.95 638.133 2636.32 637.5 2633.39 637.5C2630.05 637.5 2627.19 638.3 2624.79 639.9C2622.45 641.433 2620.65 643.533 2619.39 646.2C2618.19 648.8 2617.59 651.733 2617.59 655V687H2613.09ZM2667.12 687V634.4H2671.62V687H2667.12ZM2667.12 623.5V612.5H2671.62V623.5H2667.12Z" fill="black"/>
</svg>
